<mxfile host="app.diagrams.net" modified="2023-12-21T07:17:11.561Z" agent="Mozilla/5.0 (Windows NT 10.0; Win64; x64) AppleWebKit/537.36 (KHTML, like Gecko) Chrome/120.0.0.0 Safari/537.36" etag="Jo1uQvKMBVHCOwdYmSIB" version="22.1.11" type="device">
  <diagram id="C5RBs43oDa-KdzZeNtuy" name="Page-1">
    <mxGraphModel dx="1434" dy="780" grid="1" gridSize="10" guides="1" tooltips="1" connect="1" arrows="1" fold="1" page="1" pageScale="1" pageWidth="827" pageHeight="1169" math="0" shadow="0">
      <root>
        <mxCell id="WIyWlLk6GJQsqaUBKTNV-0" />
        <mxCell id="WIyWlLk6GJQsqaUBKTNV-1" parent="WIyWlLk6GJQsqaUBKTNV-0" />
        <mxCell id="WIyWlLk6GJQsqaUBKTNV-2" value="" style="rounded=0;html=1;jettySize=auto;orthogonalLoop=1;fontSize=11;endArrow=block;endFill=0;endSize=8;strokeWidth=1;shadow=0;labelBackgroundColor=none;edgeStyle=orthogonalEdgeStyle;" parent="WIyWlLk6GJQsqaUBKTNV-1" source="WIyWlLk6GJQsqaUBKTNV-3" target="dZgigTLAOKr5tSwofUCQ-2" edge="1">
          <mxGeometry relative="1" as="geometry">
            <mxPoint x="220" y="170" as="targetPoint" />
          </mxGeometry>
        </mxCell>
        <mxCell id="WIyWlLk6GJQsqaUBKTNV-3" value="Начало работы" style="rounded=1;whiteSpace=wrap;html=1;fontSize=12;glass=0;strokeWidth=1;shadow=0;fillColor=#dae8fc;strokeColor=#6c8ebf;" parent="WIyWlLk6GJQsqaUBKTNV-1" vertex="1">
          <mxGeometry x="160" y="80" width="120" height="40" as="geometry" />
        </mxCell>
        <mxCell id="dZgigTLAOKr5tSwofUCQ-4" value="" style="edgeStyle=orthogonalEdgeStyle;rounded=0;orthogonalLoop=1;jettySize=auto;html=1;" edge="1" parent="WIyWlLk6GJQsqaUBKTNV-1" source="dZgigTLAOKr5tSwofUCQ-2" target="dZgigTLAOKr5tSwofUCQ-3">
          <mxGeometry relative="1" as="geometry" />
        </mxCell>
        <mxCell id="dZgigTLAOKr5tSwofUCQ-10" value="" style="edgeStyle=orthogonalEdgeStyle;rounded=0;orthogonalLoop=1;jettySize=auto;html=1;" edge="1" parent="WIyWlLk6GJQsqaUBKTNV-1" source="dZgigTLAOKr5tSwofUCQ-2" target="dZgigTLAOKr5tSwofUCQ-9">
          <mxGeometry relative="1" as="geometry" />
        </mxCell>
        <mxCell id="dZgigTLAOKr5tSwofUCQ-2" value="Подготовка&amp;nbsp;&lt;br&gt;Программа" style="rounded=1;whiteSpace=wrap;html=1;fillColor=#dae8fc;strokeColor=#6c8ebf;" vertex="1" parent="WIyWlLk6GJQsqaUBKTNV-1">
          <mxGeometry x="160" y="180" width="120" height="60" as="geometry" />
        </mxCell>
        <mxCell id="dZgigTLAOKr5tSwofUCQ-6" value="" style="edgeStyle=orthogonalEdgeStyle;rounded=0;orthogonalLoop=1;jettySize=auto;html=1;" edge="1" parent="WIyWlLk6GJQsqaUBKTNV-1" source="dZgigTLAOKr5tSwofUCQ-3" target="dZgigTLAOKr5tSwofUCQ-5">
          <mxGeometry relative="1" as="geometry" />
        </mxCell>
        <mxCell id="dZgigTLAOKr5tSwofUCQ-3" value="Создание главной&lt;br&gt;Страницы" style="whiteSpace=wrap;html=1;rounded=1;fillColor=#dae8fc;strokeColor=#6c8ebf;" vertex="1" parent="WIyWlLk6GJQsqaUBKTNV-1">
          <mxGeometry x="160" y="320" width="120" height="60" as="geometry" />
        </mxCell>
        <mxCell id="dZgigTLAOKr5tSwofUCQ-8" value="" style="edgeStyle=orthogonalEdgeStyle;rounded=0;orthogonalLoop=1;jettySize=auto;html=1;" edge="1" parent="WIyWlLk6GJQsqaUBKTNV-1" source="dZgigTLAOKr5tSwofUCQ-5" target="dZgigTLAOKr5tSwofUCQ-7">
          <mxGeometry relative="1" as="geometry" />
        </mxCell>
        <mxCell id="dZgigTLAOKr5tSwofUCQ-5" value="Создание&lt;br&gt;CSS" style="whiteSpace=wrap;html=1;rounded=1;fillColor=#dae8fc;strokeColor=#6c8ebf;" vertex="1" parent="WIyWlLk6GJQsqaUBKTNV-1">
          <mxGeometry x="360" y="320" width="120" height="60" as="geometry" />
        </mxCell>
        <mxCell id="dZgigTLAOKr5tSwofUCQ-17" value="" style="edgeStyle=orthogonalEdgeStyle;rounded=0;orthogonalLoop=1;jettySize=auto;html=1;" edge="1" parent="WIyWlLk6GJQsqaUBKTNV-1" source="dZgigTLAOKr5tSwofUCQ-7" target="dZgigTLAOKr5tSwofUCQ-14">
          <mxGeometry relative="1" as="geometry" />
        </mxCell>
        <mxCell id="dZgigTLAOKr5tSwofUCQ-7" value="Верстка" style="whiteSpace=wrap;html=1;rounded=1;fillColor=#dae8fc;strokeColor=#6c8ebf;" vertex="1" parent="WIyWlLk6GJQsqaUBKTNV-1">
          <mxGeometry x="560" y="320" width="120" height="60" as="geometry" />
        </mxCell>
        <mxCell id="dZgigTLAOKr5tSwofUCQ-12" value="" style="edgeStyle=orthogonalEdgeStyle;rounded=0;orthogonalLoop=1;jettySize=auto;html=1;" edge="1" parent="WIyWlLk6GJQsqaUBKTNV-1" source="dZgigTLAOKr5tSwofUCQ-9" target="dZgigTLAOKr5tSwofUCQ-11">
          <mxGeometry relative="1" as="geometry" />
        </mxCell>
        <mxCell id="dZgigTLAOKr5tSwofUCQ-9" value="Разработка дизайна" style="whiteSpace=wrap;html=1;rounded=1;fillColor=#ffe6cc;strokeColor=#d79b00;" vertex="1" parent="WIyWlLk6GJQsqaUBKTNV-1">
          <mxGeometry x="360" y="180" width="120" height="60" as="geometry" />
        </mxCell>
        <mxCell id="dZgigTLAOKr5tSwofUCQ-13" value="" style="edgeStyle=orthogonalEdgeStyle;rounded=0;orthogonalLoop=1;jettySize=auto;html=1;" edge="1" parent="WIyWlLk6GJQsqaUBKTNV-1" source="dZgigTLAOKr5tSwofUCQ-11" target="dZgigTLAOKr5tSwofUCQ-7">
          <mxGeometry relative="1" as="geometry" />
        </mxCell>
        <mxCell id="dZgigTLAOKr5tSwofUCQ-11" value="Составление&lt;br&gt;Макета" style="whiteSpace=wrap;html=1;rounded=1;fillColor=#ffe6cc;strokeColor=#d79b00;" vertex="1" parent="WIyWlLk6GJQsqaUBKTNV-1">
          <mxGeometry x="560" y="180" width="120" height="60" as="geometry" />
        </mxCell>
        <mxCell id="dZgigTLAOKr5tSwofUCQ-19" value="" style="edgeStyle=orthogonalEdgeStyle;rounded=0;orthogonalLoop=1;jettySize=auto;html=1;" edge="1" parent="WIyWlLk6GJQsqaUBKTNV-1" source="dZgigTLAOKr5tSwofUCQ-14" target="dZgigTLAOKr5tSwofUCQ-18">
          <mxGeometry relative="1" as="geometry" />
        </mxCell>
        <mxCell id="dZgigTLAOKr5tSwofUCQ-14" value="Создание&lt;br&gt;Остальных страниц" style="whiteSpace=wrap;html=1;rounded=1;fillColor=#dae8fc;strokeColor=#6c8ebf;" vertex="1" parent="WIyWlLk6GJQsqaUBKTNV-1">
          <mxGeometry x="560" y="420" width="120" height="60" as="geometry" />
        </mxCell>
        <mxCell id="dZgigTLAOKr5tSwofUCQ-21" value="" style="edgeStyle=orthogonalEdgeStyle;rounded=0;orthogonalLoop=1;jettySize=auto;html=1;" edge="1" parent="WIyWlLk6GJQsqaUBKTNV-1" source="dZgigTLAOKr5tSwofUCQ-18" target="dZgigTLAOKr5tSwofUCQ-20">
          <mxGeometry relative="1" as="geometry" />
        </mxCell>
        <mxCell id="dZgigTLAOKr5tSwofUCQ-27" value="" style="edgeStyle=orthogonalEdgeStyle;rounded=0;orthogonalLoop=1;jettySize=auto;html=1;" edge="1" parent="WIyWlLk6GJQsqaUBKTNV-1" source="dZgigTLAOKr5tSwofUCQ-18" target="dZgigTLAOKr5tSwofUCQ-26">
          <mxGeometry relative="1" as="geometry" />
        </mxCell>
        <mxCell id="dZgigTLAOKr5tSwofUCQ-18" value="Тестирование и&lt;br&gt;оптимизация" style="whiteSpace=wrap;html=1;rounded=1;fillColor=#dae8fc;strokeColor=#6c8ebf;" vertex="1" parent="WIyWlLk6GJQsqaUBKTNV-1">
          <mxGeometry x="560" y="560" width="120" height="60" as="geometry" />
        </mxCell>
        <mxCell id="dZgigTLAOKr5tSwofUCQ-23" value="" style="edgeStyle=orthogonalEdgeStyle;rounded=0;orthogonalLoop=1;jettySize=auto;html=1;" edge="1" parent="WIyWlLk6GJQsqaUBKTNV-1" source="dZgigTLAOKr5tSwofUCQ-20" target="dZgigTLAOKr5tSwofUCQ-22">
          <mxGeometry relative="1" as="geometry" />
        </mxCell>
        <mxCell id="dZgigTLAOKr5tSwofUCQ-20" value="Адаптация" style="whiteSpace=wrap;html=1;rounded=1;fillColor=#dae8fc;strokeColor=#6c8ebf;" vertex="1" parent="WIyWlLk6GJQsqaUBKTNV-1">
          <mxGeometry x="360" y="560" width="120" height="60" as="geometry" />
        </mxCell>
        <mxCell id="dZgigTLAOKr5tSwofUCQ-25" value="" style="edgeStyle=orthogonalEdgeStyle;rounded=0;orthogonalLoop=1;jettySize=auto;html=1;" edge="1" parent="WIyWlLk6GJQsqaUBKTNV-1" source="dZgigTLAOKr5tSwofUCQ-22" target="dZgigTLAOKr5tSwofUCQ-24">
          <mxGeometry relative="1" as="geometry" />
        </mxCell>
        <mxCell id="dZgigTLAOKr5tSwofUCQ-22" value="Публикация&lt;br&gt;в Интернет" style="whiteSpace=wrap;html=1;rounded=1;fillColor=#dae8fc;strokeColor=#6c8ebf;" vertex="1" parent="WIyWlLk6GJQsqaUBKTNV-1">
          <mxGeometry x="160" y="560" width="120" height="60" as="geometry" />
        </mxCell>
        <mxCell id="dZgigTLAOKr5tSwofUCQ-33" style="edgeStyle=orthogonalEdgeStyle;rounded=0;orthogonalLoop=1;jettySize=auto;html=1;exitX=1;exitY=0.5;exitDx=0;exitDy=0;entryX=0;entryY=0.5;entryDx=0;entryDy=0;" edge="1" parent="WIyWlLk6GJQsqaUBKTNV-1" source="dZgigTLAOKr5tSwofUCQ-24" target="dZgigTLAOKr5tSwofUCQ-26">
          <mxGeometry relative="1" as="geometry" />
        </mxCell>
        <mxCell id="dZgigTLAOKr5tSwofUCQ-35" value="" style="edgeStyle=orthogonalEdgeStyle;rounded=0;orthogonalLoop=1;jettySize=auto;html=1;" edge="1" parent="WIyWlLk6GJQsqaUBKTNV-1" source="dZgigTLAOKr5tSwofUCQ-24" target="dZgigTLAOKr5tSwofUCQ-34">
          <mxGeometry relative="1" as="geometry" />
        </mxCell>
        <mxCell id="dZgigTLAOKr5tSwofUCQ-24" value="Финальное&lt;br&gt;тестирование" style="whiteSpace=wrap;html=1;rounded=1;fillColor=#dae8fc;strokeColor=#6c8ebf;" vertex="1" parent="WIyWlLk6GJQsqaUBKTNV-1">
          <mxGeometry x="160" y="700" width="120" height="60" as="geometry" />
        </mxCell>
        <mxCell id="dZgigTLAOKr5tSwofUCQ-29" value="" style="edgeStyle=orthogonalEdgeStyle;rounded=0;orthogonalLoop=1;jettySize=auto;html=1;" edge="1" parent="WIyWlLk6GJQsqaUBKTNV-1" source="dZgigTLAOKr5tSwofUCQ-26" target="dZgigTLAOKr5tSwofUCQ-28">
          <mxGeometry relative="1" as="geometry" />
        </mxCell>
        <mxCell id="dZgigTLAOKr5tSwofUCQ-26" value="Создание списка&lt;br&gt;Ошибок" style="whiteSpace=wrap;html=1;fillColor=#f8cecc;strokeColor=#b85450;rounded=1;" vertex="1" parent="WIyWlLk6GJQsqaUBKTNV-1">
          <mxGeometry x="560" y="700" width="120" height="60" as="geometry" />
        </mxCell>
        <mxCell id="dZgigTLAOKr5tSwofUCQ-31" value="" style="edgeStyle=orthogonalEdgeStyle;rounded=0;orthogonalLoop=1;jettySize=auto;html=1;" edge="1" parent="WIyWlLk6GJQsqaUBKTNV-1" source="dZgigTLAOKr5tSwofUCQ-28" target="dZgigTLAOKr5tSwofUCQ-30">
          <mxGeometry relative="1" as="geometry" />
        </mxCell>
        <mxCell id="dZgigTLAOKr5tSwofUCQ-28" value="Разработка плана&lt;br&gt;решения ошибок" style="whiteSpace=wrap;html=1;fillColor=#f8cecc;strokeColor=#b85450;rounded=1;" vertex="1" parent="WIyWlLk6GJQsqaUBKTNV-1">
          <mxGeometry x="760" y="700" width="120" height="60" as="geometry" />
        </mxCell>
        <mxCell id="dZgigTLAOKr5tSwofUCQ-32" value="" style="edgeStyle=orthogonalEdgeStyle;rounded=0;orthogonalLoop=1;jettySize=auto;html=1;" edge="1" parent="WIyWlLk6GJQsqaUBKTNV-1" source="dZgigTLAOKr5tSwofUCQ-30" target="dZgigTLAOKr5tSwofUCQ-18">
          <mxGeometry relative="1" as="geometry" />
        </mxCell>
        <mxCell id="dZgigTLAOKr5tSwofUCQ-30" value="Решение ошибок" style="whiteSpace=wrap;html=1;fillColor=#f8cecc;strokeColor=#b85450;rounded=1;" vertex="1" parent="WIyWlLk6GJQsqaUBKTNV-1">
          <mxGeometry x="760" y="560" width="120" height="60" as="geometry" />
        </mxCell>
        <mxCell id="dZgigTLAOKr5tSwofUCQ-34" value="Финал работы" style="whiteSpace=wrap;html=1;fillColor=#dae8fc;strokeColor=#6c8ebf;rounded=1;" vertex="1" parent="WIyWlLk6GJQsqaUBKTNV-1">
          <mxGeometry x="160" y="840" width="120" height="60" as="geometry" />
        </mxCell>
      </root>
    </mxGraphModel>
  </diagram>
</mxfile>
